<svg viewBox="0 0 160 150" width="160" height="150" aria-hidden="true" xmlns="http://www.w3.org/2000/svg"><defs>
<filter id="gouache" x="-8%" y="-8%" width="116%" height="116%" color-interpolation-filters="sRGB">
<feTurbulence type="fractalNoise" baseFrequency="0.045" numOctaves="2" seed="7" result="w"/>
<feDisplacementMap in="SourceGraphic" in2="w" scale="3.4" xChannelSelector="R" yChannelSelector="G" result="r"/>
<feTurbulence type="fractalNoise" baseFrequency="0.9" numOctaves="2" seed="11" result="n"/>
<feColorMatrix in="n" type="matrix" values="0 0 0 0 0.34  0 0 0 0 0.46  0 0 0 0 0.54  0 0 0 -0.6 0.33" result="ng"/>
<feComposite in="ng" in2="r" operator="in" result="gr"/>
<feMerge><feMergeNode in="r"/><feMergeNode in="gr"/></feMerge>
</filter>
<filter id="brush" x="-5%" y="-10%" width="110%" height="120%" color-interpolation-filters="sRGB">
<feTurbulence type="fractalNoise" baseFrequency="0.006 0.16" numOctaves="2" seed="4" result="w"/>
<feDisplacementMap in="SourceGraphic" in2="w" scale="7" xChannelSelector="R" yChannelSelector="G" result="r"/>
<feTurbulence type="fractalNoise" baseFrequency="0.02 0.9" numOctaves="2" seed="9" result="n"/>
<feColorMatrix in="n" type="matrix" values="0 0 0 0 1  0 0 0 0 1  0 0 0 0 1  0 0 0 -1.4 0.75" result="ng"/>
<feComposite in="ng" in2="r" operator="in" result="gr"/>
<feMerge><feMergeNode in="r"/><feMergeNode in="gr"/></feMerge>
</filter>
<filter id="grain" x="0" y="0" width="100%" height="100%">
<feTurbulence type="fractalNoise" baseFrequency="0.8" numOctaves="2" seed="3" result="n"/>
<feColorMatrix in="n" type="matrix" values="0 0 0 0 0.3  0 0 0 0 0.4  0 0 0 0 0.45  0 0 0 -1.6 0.9"/>
</filter>
</defs><defs><clipPath id="hp"><path d="M0 0H160V150C120 160 60 120 0 70Z"/></clipPath></defs><g clip-path="url(#hp)"><rect width="160" height="150" fill="#2F6E80"/><g filter="url(#brush)"><path d="M0 10.0Q40.0 5.0 80.0 10.0T160 10.0V150H0Z" fill="#4E97A9"/><path d="M0 45.0Q40.0 40.0 80.0 45.0T160 45.0V150H0Z" fill="#3F869A"/><path d="M0 80.0Q40.0 75.0 80.0 80.0T160 80.0V150H0Z" fill="#33788C"/><path d="M0 115.0Q40.0 110.0 80.0 115.0T160 115.0V150H0Z" fill="#2A6A7E"/></g><ellipse cx="88" cy="70" rx="40" ry="8" fill="#E46C83" opacity=".18" filter="url(#brush)"/><g transform="translate(56,10) rotate(0 60 60) scale(0.62)" filter="url(#gouache)">
<path d="M22 34C14 22 24 10 37 14C46 17 47 27 43 33Z" fill="#FBF7EF"/><path d="M27 30C24 24 29 19 34 21C38 23 38 28 36 31Z" fill="#F2C2BE"/>
<path d="M98 34C106 22 96 10 83 14C74 17 73 27 77 33Z" fill="#FBF7EF"/><path d="M93 30C96 24 91 19 86 21C82 23 82 28 84 31Z" fill="#F2C2BE"/>
<path d="M60 18C86 16 106 34 105 60C104 86 84 99 60 99C36 99 15 87 15 60C14 34 34 20 60 18Z" fill="#FBF7EF"/>
<path d="M62 99C88 98 106 84 105 60C104 70 96 86 82 90C74 93 66 92 62 99Z" fill="#B9D3DB" opacity=".7"/>
<path d="M15 62C16 82 34 96 56 98C40 92 24 82 15 62Z" fill="#CFE3E8" opacity=".7"/>
<path d="M60 62C76 61 84 71 82 80C80 90 70 94 60 94C50 94 40 90 38 80C36 71 44 62 60 62Z" fill="#F0E7D6"/>
<ellipse cx="34" cy="72" rx="8" ry="5" fill="#F2B8B4" opacity=".35"/><ellipse cx="86" cy="72" rx="8" ry="5" fill="#F2B8B4" opacity=".35"/>
<path d="M49 68C49 63 55 61 60 61C65 61 71 63 71 68C71 74 65 79 60 79C55 79 49 74 49 68Z" fill="#2A3A40"/><ellipse cx="56.5" cy="65.5" rx="3.2" ry="1.6" fill="#7E97A0" opacity=".7"/>
<path d="M60 79V84M60 84C57 88 52 88 50 85M60 84C63 88 68 88 70 85" stroke="#2A3A40" stroke-width="1.8" fill="none" stroke-linecap="round"/><ellipse cx="42" cy="54" rx="3" ry="3.4" fill="#2A3A40"/><ellipse cx="78" cy="54" rx="3" ry="3.4" fill="#2A3A40"/></g><g opacity=".98" filter="url(#brush)"><path d="M0 58.0Q40.0 53.0 80.0 58.0T160 58.0V150H0Z" fill="#4E97A9"/><path d="M0 88.7Q40.0 83.7 80.0 88.7T160 88.7V150H0Z" fill="#3F869A"/><path d="M0 119.3Q40.0 114.3 80.0 119.3T160 119.3V150H0Z" fill="#33788C"/></g><ellipse cx="88" cy="62" rx="34" ry="8.2" fill="none" stroke="#DFF3F6" stroke-width="1.1" opacity="0.50"/><ellipse cx="88" cy="62" rx="52" ry="12.5" fill="none" stroke="#DFF3F6" stroke-width="1.1" opacity="0.40"/><ellipse cx="88" cy="62" rx="72" ry="17.3" fill="none" stroke="#DFF3F6" stroke-width="1.1" opacity="0.30"/><ellipse cx="88" cy="62" rx="94" ry="22.6" fill="none" stroke="#DFF3F6" stroke-width="1.1" opacity="0.20"/></g></svg>