<svg viewBox="0 0 342 180" width="342" height="180" role="img" aria-label="A tiny polar bear beside an iceberg" xmlns="http://www.w3.org/2000/svg"><defs>
<filter id="gouache" x="-8%" y="-8%" width="116%" height="116%" color-interpolation-filters="sRGB">
<feTurbulence type="fractalNoise" baseFrequency="0.045" numOctaves="2" seed="7" result="w"/>
<feDisplacementMap in="SourceGraphic" in2="w" scale="3.4" xChannelSelector="R" yChannelSelector="G" result="r"/>
<feTurbulence type="fractalNoise" baseFrequency="0.9" numOctaves="2" seed="11" result="n"/>
<feColorMatrix in="n" type="matrix" values="0 0 0 0 0.34  0 0 0 0 0.46  0 0 0 0 0.54  0 0 0 -0.6 0.33" result="ng"/>
<feComposite in="ng" in2="r" operator="in" result="gr"/>
<feMerge><feMergeNode in="r"/><feMergeNode in="gr"/></feMerge>
</filter>
<filter id="brush" x="-5%" y="-10%" width="110%" height="120%" color-interpolation-filters="sRGB">
<feTurbulence type="fractalNoise" baseFrequency="0.006 0.16" numOctaves="2" seed="4" result="w"/>
<feDisplacementMap in="SourceGraphic" in2="w" scale="7" xChannelSelector="R" yChannelSelector="G" result="r"/>
<feTurbulence type="fractalNoise" baseFrequency="0.02 0.9" numOctaves="2" seed="9" result="n"/>
<feColorMatrix in="n" type="matrix" values="0 0 0 0 1  0 0 0 0 1  0 0 0 0 1  0 0 0 -1.4 0.75" result="ng"/>
<feComposite in="ng" in2="r" operator="in" result="gr"/>
<feMerge><feMergeNode in="r"/><feMergeNode in="gr"/></feMerge>
</filter>
<filter id="grain" x="0" y="0" width="100%" height="100%">
<feTurbulence type="fractalNoise" baseFrequency="0.8" numOctaves="2" seed="3" result="n"/>
<feColorMatrix in="n" type="matrix" values="0 0 0 0 0.3  0 0 0 0 0.4  0 0 0 0 0.45  0 0 0 -1.6 0.9"/>
</filter>
</defs><defs><linearGradient id="sk16" x1="0" y1="0" x2="0" y2="1"><stop offset="0" stop-color="#E3F0F3"/><stop offset="1" stop-color="#F4F8F8"/></linearGradient></defs><rect width="342" height="180" fill="url(#sk16)"/><g filter="url(#gouache)" opacity=".85"><path d="M0 96L52 66 96 86 150 56 206 92 262 70 342 98V116H0Z" fill="#C4D9E1"/></g><g transform="translate(52,52) scale(1.15)" filter="url(#gouache)"><path d="M0 60L18 24L34 34L52 4L74 30L92 22L112 60Z" fill="#F7FBFB"/><path d="M52 4L74 30L92 22L112 60L64 60Z" fill="#D8EAEE"/><path d="M0 60L18 24L26 60Z" fill="#9DC2CE" opacity=".55"/><path d="M6 60H108V72C80 76 36 76 6 72Z" fill="#9DC2CE" opacity=".5"/></g><g filter="url(#brush)"><path d="M0 112.0Q85.5 107.0 171.0 112.0T342 112.0V180H0Z" fill="#9AD1D9"/><path d="M0 129.0Q85.5 124.0 171.0 129.0T342 129.0V180H0Z" fill="#78BAC7"/><path d="M0 146.0Q85.5 141.0 171.0 146.0T342 146.0V180H0Z" fill="#559EB0"/><path d="M0 163.0Q85.5 158.0 171.0 163.0T342 163.0V180H0Z" fill="#3B8397"/></g><ellipse cx="86" cy="164" rx="40" ry="6" fill="#E46C83" opacity=".12"/><g filter="url(#gouache)"><path d="M232 112C232 104 252 100 282 102C312 104 330 108 330 116C330 124 300 128 276 128C250 128 232 122 232 112Z" fill="#F1F8F9"/><path d="M232 118C250 126 300 130 330 118C326 128 300 132 274 132C250 132 234 126 232 118Z" fill="#B9D3DB" opacity=".7"/></g><g transform="translate(262,88) scale(0.26)" filter="url(#gouache)">
<path d="M56 34C72 26 108 26 128 40C144 51 146 74 132 84C122 91 96 90 56 88C36 87 30 72 34 58C38 46 46 38 56 34Z" fill="#FBF7EF"/>
<path d="M60 88C96 91 122 92 132 84C142 76 144 62 140 54C138 74 122 82 96 82C78 82 66 84 60 88Z" fill="#B9D3DB" opacity=".75"/>
<path d="M92 34C104 30 118 32 126 38C112 34 100 36 92 40Z" fill="#fff" opacity=".7"/>
<path d="M38 96C38 86 52 84 60 88C68 92 66 102 54 103C44 104 38 102 38 96Z" fill="#FBF7EF"/><path d="M110 96C110 86 124 84 132 88C140 92 138 102 126 103C116 104 110 102 110 96Z" fill="#FBF7EF"/>
<path d="M14 54C14 40 26 32 40 34C50 36 56 46 54 58C52 70 40 76 28 74C18 72 14 64 14 54Z" fill="#FBF7EF"/>
<path d="M28 34C24 26 30 20 38 22C44 24 44 32 42 36Z" fill="#FBF7EF"/><path d="M31 32C30 27 34 25 37 27C39 29 38 32 37 34Z" fill="#F2C2BE"/>
<path d="M14 56C10 56 8 60 10 63C12 66 18 66 20 62Z" fill="#2A3A40"/><path d="M18 62C26 70 40 68 44 60C40 72 26 76 18 68Z" fill="#B9D3DB" opacity=".7"/><ellipse cx="32" cy="43" rx="2.6" ry="3" fill="#2A3A40"/></g><ellipse cx="100" cy="150" rx="30" ry="7.2" fill="none" stroke="#E4F6F8" stroke-width="1.1" opacity="0.50"/><ellipse cx="100" cy="150" rx="46" ry="11.0" fill="none" stroke="#E4F6F8" stroke-width="1.1" opacity="0.40"/><ellipse cx="100" cy="150" rx="64" ry="15.4" fill="none" stroke="#E4F6F8" stroke-width="1.1" opacity="0.30"/><circle cx="24" cy="30" r="1.3" fill="#fff" opacity="0.9"/><circle cx="300" cy="30" r="1.4" fill="#fff" opacity="0.9"/><circle cx="180" cy="40" r="1.1" fill="#fff" opacity="0.9"/></svg>