<svg viewBox="0 0 342 180" width="342" height="180" role="img" aria-label="A polar bear sleeping in the snow" xmlns="http://www.w3.org/2000/svg"><defs>
<filter id="gouache" x="-8%" y="-8%" width="116%" height="116%" color-interpolation-filters="sRGB">
<feTurbulence type="fractalNoise" baseFrequency="0.045" numOctaves="2" seed="7" result="w"/>
<feDisplacementMap in="SourceGraphic" in2="w" scale="3.4" xChannelSelector="R" yChannelSelector="G" result="r"/>
<feTurbulence type="fractalNoise" baseFrequency="0.9" numOctaves="2" seed="11" result="n"/>
<feColorMatrix in="n" type="matrix" values="0 0 0 0 0.34  0 0 0 0 0.46  0 0 0 0 0.54  0 0 0 -0.6 0.33" result="ng"/>
<feComposite in="ng" in2="r" operator="in" result="gr"/>
<feMerge><feMergeNode in="r"/><feMergeNode in="gr"/></feMerge>
</filter>
<filter id="brush" x="-5%" y="-10%" width="110%" height="120%" color-interpolation-filters="sRGB">
<feTurbulence type="fractalNoise" baseFrequency="0.006 0.16" numOctaves="2" seed="4" result="w"/>
<feDisplacementMap in="SourceGraphic" in2="w" scale="7" xChannelSelector="R" yChannelSelector="G" result="r"/>
<feTurbulence type="fractalNoise" baseFrequency="0.02 0.9" numOctaves="2" seed="9" result="n"/>
<feColorMatrix in="n" type="matrix" values="0 0 0 0 1  0 0 0 0 1  0 0 0 0 1  0 0 0 -1.4 0.75" result="ng"/>
<feComposite in="ng" in2="r" operator="in" result="gr"/>
<feMerge><feMergeNode in="r"/><feMergeNode in="gr"/></feMerge>
</filter>
<filter id="grain" x="0" y="0" width="100%" height="100%">
<feTurbulence type="fractalNoise" baseFrequency="0.8" numOctaves="2" seed="3" result="n"/>
<feColorMatrix in="n" type="matrix" values="0 0 0 0 0.3  0 0 0 0 0.4  0 0 0 0 0.45  0 0 0 -1.6 0.9"/>
</filter>
</defs><defs><linearGradient id="sk17" x1="0" y1="0" x2="0" y2="1"><stop offset="0" stop-color="#E7F1F4"/><stop offset="1" stop-color="#F4F8F8"/></linearGradient></defs><rect width="342" height="180" fill="url(#sk17)"/><g filter="url(#gouache)"><path d="M0 108C60 84 120 98 190 92S300 84 342 100V180H0Z" fill="#EAF3F5"/><path d="M0 140C80 122 160 132 240 126S320 120 342 128V180H0Z" fill="#fff"/><path d="M0 150C90 142 170 156 250 148S320 146 342 150V180H0Z" fill="#CFE3E8" opacity=".7"/></g><g transform="translate(96,86)" filter="url(#gouache)"><path d="M10 50C4 26 34 10 84 12C130 14 150 32 142 54C136 70 104 76 70 76C34 76 14 70 10 50Z" fill="#FBF7EF"/><path d="M14 62C40 78 110 80 138 62C132 76 100 82 70 82C38 82 18 74 14 62Z" fill="#B9D3DB" opacity=".75"/><path d="M60 14C88 8 122 14 136 30C118 22 92 20 60 24Z" fill="#fff" opacity=".7"/></g><g transform="translate(106,80) rotate(-8 60 60) scale(0.5)" filter="url(#gouache)">
<path d="M22 34C14 22 24 10 37 14C46 17 47 27 43 33Z" fill="#FBF7EF"/><path d="M27 30C24 24 29 19 34 21C38 23 38 28 36 31Z" fill="#F2C2BE"/>
<path d="M98 34C106 22 96 10 83 14C74 17 73 27 77 33Z" fill="#FBF7EF"/><path d="M93 30C96 24 91 19 86 21C82 23 82 28 84 31Z" fill="#F2C2BE"/>
<path d="M60 18C86 16 106 34 105 60C104 86 84 99 60 99C36 99 15 87 15 60C14 34 34 20 60 18Z" fill="#FBF7EF"/>
<path d="M62 99C88 98 106 84 105 60C104 70 96 86 82 90C74 93 66 92 62 99Z" fill="#B9D3DB" opacity=".7"/>
<path d="M15 62C16 82 34 96 56 98C40 92 24 82 15 62Z" fill="#CFE3E8" opacity=".7"/>
<path d="M60 62C76 61 84 71 82 80C80 90 70 94 60 94C50 94 40 90 38 80C36 71 44 62 60 62Z" fill="#F0E7D6"/>
<ellipse cx="34" cy="72" rx="8" ry="5" fill="#F2B8B4" opacity=".35"/><ellipse cx="86" cy="72" rx="8" ry="5" fill="#F2B8B4" opacity=".35"/>
<path d="M49 68C49 63 55 61 60 61C65 61 71 63 71 68C71 74 65 79 60 79C55 79 49 74 49 68Z" fill="#2A3A40"/><ellipse cx="56.5" cy="65.5" rx="3.2" ry="1.6" fill="#7E97A0" opacity=".7"/>
<path d="M60 79V84M60 84C57 88 52 88 50 85M60 84C63 88 68 88 70 85" stroke="#2A3A40" stroke-width="1.8" fill="none" stroke-linecap="round"/><path d="M36 55q6 4 12 0M72 55q6 4 12 0" fill="none" stroke="#2A3A40" stroke-width="2.4" stroke-linecap="round"/></g><g transform="translate(232,64)" opacity=".5"><path d="M0 8h10l-10 10h10" stroke="#5F8FA0" stroke-width="1.6" fill="none" stroke-linecap="round" stroke-linejoin="round"/><path d="M16 0h7l-7 7h7" stroke="#5F8FA0" stroke-width="1.4" fill="none" stroke-linecap="round" stroke-linejoin="round"/></g><circle cx="30" cy="26" r="1.4" fill="#fff" opacity="0.9"/><circle cx="78" cy="46" r="1.1" fill="#fff" opacity="0.9"/><circle cx="270" cy="30" r="1.5" fill="#fff" opacity="0.9"/><circle cx="316" cy="52" r="1.1" fill="#fff" opacity="0.9"/><circle cx="140" cy="30" r="1" fill="#fff" opacity="0.9"/></svg>